HIERARCHY
ROOT Hips
{
	OFFSET 0.000000 0.000000 0.000000
	CHANNELS 6 Xposition Yposition Zposition Zrotation Yrotation Xrotation 
	JOINT LHipJoint
	{
		OFFSET 0.000000 0.000000 0.000000
		CHANNELS 3 Zrotation Yrotation Xrotation
		JOINT LeftUpLeg
		{
			OFFSET 1.363060 -1.794630 0.839290
			CHANNELS 3 Zrotation Yrotation Xrotation
			JOINT LeftLeg
			{
				OFFSET 2.448110 -6.726130 0.000000
				CHANNELS 3 Zrotation Yrotation Xrotation
				JOINT LeftFoot
				{
					OFFSET 2.562200 -7.039590 0.000000
					CHANNELS 3 Zrotation Yrotation Xrotation
					JOINT LeftToeBase
					{
						OFFSET 0.157640 -0.433110 2.322550
						CHANNELS 3 Zrotation Yrotation Xrotation
						End Site
						{
							OFFSET 0.000000 0.000000 0.000000
						}
					}
				}
			}
		}
	}
	JOINT RHipJoint
	{
		OFFSET 0.000000 0.000000 0.000000
		CHANNELS 3 Zrotation Yrotation Xrotation
		JOINT RightUpLeg
		{
			OFFSET -1.305520 -1.794630 0.839290
			CHANNELS 3 Zrotation Yrotation Xrotation
			JOINT RightLeg
			{
				OFFSET -2.542530 -6.985550 0.000000
				CHANNELS 3 Zrotation Yrotation Xrotation
				JOINT RightFoot
				{
					OFFSET -2.568260 -7.056230 0.000000
					CHANNELS 3 Zrotation Yrotation Xrotation
					JOINT RightToeBase
					{
						OFFSET -0.164730 -0.452590 2.363150
						CHANNELS 3 Zrotation Yrotation Xrotation
						End Site
						{
							OFFSET 0.000000 0.000000 0.000000
						}
					}
				}
			}
		}
	}
	JOINT LowerBack
	{
		OFFSET 0.000000 0.000000 0.000000
		CHANNELS 3 Zrotation Yrotation Xrotation
		JOINT Spine
		{
			OFFSET 0.028270 2.035590 -0.193380
			CHANNELS 3 Zrotation Yrotation Xrotation
			JOINT Spine1
			{
				OFFSET 0.056720 2.048850 -0.042750
				CHANNELS 3 Zrotation Yrotation Xrotation
				JOINT Neck
				{
					OFFSET 0.000000 0.000000 0.000000
					CHANNELS 3 Zrotation Yrotation Xrotation
					JOINT Neck1
					{
						OFFSET -0.054170 1.746240 0.172020
						CHANNELS 3 Zrotation Yrotation Xrotation
						JOINT Head
						{
							OFFSET 0.104070 1.761360 -0.123970
							CHANNELS 3 Zrotation Yrotation Xrotation
							End Site
							{
								OFFSET 0.000000 0.000000 0.000000
							}
						}
					}
				}
				JOINT LeftShoulder
				{
					OFFSET 0.000000 0.000000 0.000000
					CHANNELS 3 Zrotation Yrotation Xrotation
					JOINT LeftArm
					{
						OFFSET 3.362410 1.200890 -0.311210
						CHANNELS 3 Zrotation Yrotation Xrotation
						JOINT LeftForeArm
						{
							OFFSET 4.983000 -0.000000 -0.000000
							CHANNELS 3 Zrotation Yrotation Xrotation
							JOINT LeftHand
							{
								OFFSET 3.483560 -0.000000 -0.000000
								CHANNELS 3 Zrotation Yrotation Xrotation
								JOINT LeftFingerBase
								{
									OFFSET 0.000000 0.000000 0.000000
									CHANNELS 3 Zrotation Yrotation Xrotation
									JOINT LeftHandIndex1
									{
										OFFSET 0.715260 -0.000000 -0.000000
										CHANNELS 3 Zrotation Yrotation Xrotation
										End Site
										{
											OFFSET 0.000000 0.000000 0.000000
										}
									}
								}
								JOINT LThumb
								{
									OFFSET 0.000000 0.000000 0.000000
									CHANNELS 3 Zrotation Yrotation Xrotation
									End Site
									{
										OFFSET 0.000000 0.000000 0.000000
									}
								}
							}
						}
					}
				}
				JOINT RightShoulder
				{
					OFFSET 0.000000 0.000000 0.000000
					CHANNELS 3 Zrotation Yrotation Xrotation
					JOINT RightArm
					{
						OFFSET -3.136600 1.374050 -0.404650
						CHANNELS 3 Zrotation Yrotation Xrotation
						JOINT RightForeArm
						{
							OFFSET -5.241900 -0.000000 -0.000000
							CHANNELS 3 Zrotation Yrotation Xrotation
							JOINT RightHand
							{
								OFFSET -3.444170 -0.000000 -0.000000
								CHANNELS 3 Zrotation Yrotation Xrotation
								JOINT RightFingerBase
								{
									OFFSET 0.000000 0.000000 0.000000
									CHANNELS 3 Zrotation Yrotation Xrotation
									JOINT RightHandIndex1
									{
										OFFSET -0.622530 -0.000000 -0.000000
										CHANNELS 3 Zrotation Yrotation Xrotation
										End Site
										{
											OFFSET 0.000000 0.000000 0.000000
										}
									}
								}
								JOINT RThumb
								{
									OFFSET 0.000000 0.000000 0.000000
									CHANNELS 3 Zrotation Yrotation Xrotation
									End Site
									{
										OFFSET 0.000000 0.000000 0.000000
									}
								}
							}
						}
					}
				}
			}
		}
	}
}
MOTION
Frames: 9
Frame Time: 0.008333
8.150004 17.863637 34.618754 178.628399 -1.488443 -155.949030 9.120370 1.266817 -1.803615 -26.196817 -18.680304 -19.446447 -0.981303 6.350920 14.504982 0.669029 -2.899091 -18.500226 5.427800 -13.850000 -42.639800 -13.491708 -3.057545 -1.671941 31.784418 16.230536 -16.609661 1.200831 -4.501190 10.494228 -1.204540 -0.711752 -21.891518 -2.644200 10.095500 -29.286600 -3.742342 -0.173713 -25.362966 1.676275 -0.744187 -5.244027 -0.005565 -1.372748 14.343476 -9.064356 -1.823659 -6.597801 9.341397 -3.505481 13.948291 0.926400 -1.093700 2.881500 15.255135 -0.768273 0.741211 -106.568572 -2.038140 0.965790 8.351626 -8.128730 -0.693957 -0.778395 1.677341 24.581213 15.359570 -10.282638 -3.425000 -7.125000 0.000000 0.000000 -7.269400 18.082400 4.692000 -10.615021 -0.453575 -0.166423 98.744192 -2.289401 2.547496 -11.990206 21.905873 -3.115000 1.402863 3.973707 5.062247 -18.400462 -48.050655 15.540000 7.125000 0.000000 0.000000 59.052500 -78.330600 -48.377200 
8.142444 17.867034 34.612181 178.615229 -1.631347 -156.143978 9.117144 1.280218 -1.783152 -26.260458 -18.941468 -19.094566 -0.985498 6.303443 14.429440 0.684360 -2.853354 -18.574312 5.035800 -13.424000 -40.977300 -13.475552 -3.083523 -1.707912 31.808567 16.038211 -16.289860 1.205855 -4.420061 10.383625 -1.207087 -0.880113 -21.889564 -2.674500 10.148500 -29.459000 -3.672224 -0.177519 -25.223664 1.653084 -0.740103 -5.207349 -0.101199 -1.351985 14.389715 -9.138877 -1.765666 -6.385079 9.514931 -3.516193 13.803051 1.008400 -1.107300 2.775100 15.259366 -0.794764 0.749993 -106.501151 -1.965818 1.651054 8.400922 -8.182256 -0.703577 -0.821909 1.657792 23.808068 15.482515 -10.256221 -3.441800 -7.125000 0.000000 0.000000 -7.172500 18.117800 4.622900 -10.629881 -0.494269 -0.158233 98.738173 -2.328298 2.573105 -11.973649 21.886549 -3.107272 1.382030 3.943193 4.792199 -18.253926 -47.508414 15.304600 7.125000 0.000000 0.000000 56.534900 -78.051400 -45.856200 
8.141896 17.865609 34.610428 178.553441 -1.666306 -156.247221 9.108012 1.304739 -1.767500 -26.380599 -18.886854 -18.987115 -0.980410 6.290898 14.420815 0.671870 -2.928664 -18.522219 5.035000 -13.423100 -40.973600 -13.471268 -3.086345 -1.727203 31.795555 15.947216 -16.140308 1.207138 -4.384756 10.345557 -1.211247 -0.954896 -21.911284 -2.792000 10.350500 -30.119300 -3.756418 -0.235277 -25.120402 1.641041 -0.765632 -5.205169 -0.109420 -1.388370 14.393912 -8.881862 -2.090675 -7.040074 9.149981 -3.736178 14.654733 0.825800 -1.168800 3.251300 15.263896 -0.664415 0.725492 -106.461804 -1.844833 2.085190 8.423069 -8.196163 -0.708260 -0.854596 1.651860 23.365569 15.635218 -10.237068 -3.470500 -7.125000 0.000000 0.000000 -7.052500 18.134100 4.541800 -10.626090 -0.396540 -0.161427 98.747842 -2.335696 2.370708 -11.919462 21.811391 -3.075071 1.345047 3.916855 4.924401 -17.550179 -47.118597 14.618000 7.125000 0.000000 0.000000 55.266100 -77.580200 -44.283200 
8.144745 17.863747 34.607798 178.626832 -1.740278 -156.351557 9.102696 1.318768 -1.769128 -26.306156 -18.778275 -18.888532 -0.974393 6.274520 14.414810 0.656302 -3.048854 -18.484884 5.036300 -13.424500 -40.979100 -13.475138 -3.085518 -1.728723 31.942081 16.038458 -15.920473 1.215347 -4.343930 10.277825 -1.218408 -1.061237 -21.975490 -2.795000 10.355600 -30.136000 -3.770631 -0.209915 -25.023190 1.629187 -0.719269 -5.196675 -0.103570 -1.371209 14.373828 -8.676547 -2.252261 -7.106568 9.027697 -3.924864 14.801984 0.726100 -1.253300 3.317100 15.276539 -0.634926 0.718327 -106.405974 -1.806877 2.207688 8.433119 -8.214121 -0.712120 -0.860231 1.665826 23.285185 15.716490 -10.353223 -3.528500 -7.125000 0.000000 0.000000 -6.989500 17.995200 4.522200 -10.624779 -0.384963 -0.156332 98.874282 -2.443818 2.136389 -11.900266 21.812394 -3.080331 1.414448 4.001954 5.085448 -18.703382 -48.464458 15.884300 7.125000 0.000000 0.000000 60.969500 -78.607300 -50.384100 
8.145402 17.862432 34.605717 178.728175 -1.826660 -156.392418 9.101165 1.321500 -1.773878 -26.164691 -18.782964 -18.841892 -0.973634 6.267462 14.409684 0.653768 -3.080466 -18.489895 4.991400 -13.374100 -40.785600 -13.489433 -3.075157 -1.726239 32.103864 16.210762 -15.746089 1.230582 -4.312016 10.208468 -1.219388 -1.317693 -22.041412 -2.793200 10.352500 -30.125800 -3.714707 -0.177377 -25.022407 1.628470 -0.683215 -5.174681 -0.112710 -1.363603 14.444047 -8.481366 -2.405076 -7.286582 8.704243 -4.022559 15.121834 0.565700 -1.288600 3.468200 15.285197 -0.587549 0.710363 -106.412769 -1.823639 2.527624 8.477411 -8.271974 -0.722273 -0.884635 1.665726 22.946397 15.859069 -10.389639 -3.573400 -7.125000 0.000000 0.000000 -6.879100 17.947900 4.456800 -10.620538 -0.342066 -0.148589 98.932253 -2.442800 2.052465 -11.882534 21.801726 -3.077268 1.437482 4.033643 5.055512 -19.205621 -48.908871 16.414200 7.125000 0.000000 0.000000 63.064700 -78.963200 -52.655700 
8.142006 17.862651 34.605169 178.759630 -1.883102 -156.404840 9.098460 1.322271 -1.773706 -26.134600 -18.825273 -18.815086 -0.975251 6.268018 14.411565 0.660338 -3.035330 -18.502510 5.057700 -13.448500 -41.071500 -13.505627 -3.058457 -1.719690 32.146387 16.405466 -15.651150 1.242066 -4.309042 10.200986 -1.220476 -1.577644 -22.122608 -2.782100 10.333700 -30.064300 -3.693862 -0.202605 -25.018386 1.649416 -0.718795 -5.169823 -0.074207 -1.396913 14.486625 -8.415146 -2.547192 -7.733772 8.329491 -4.023098 15.713812 0.425900 -1.265300 3.805300 15.285328 -0.498724 0.692193 -106.508771 -1.766159 3.105462 8.563041 -8.380425 -0.741012 -0.919305 1.635453 22.203452 15.925840 -10.309469 -3.557700 -7.125000 0.000000 0.000000 -6.828400 18.049300 4.408200 -10.613937 -0.263685 -0.145063 98.866983 -2.382440 1.943165 -11.830510 21.729936 -3.054020 1.454936 4.031160 5.062929 -19.449732 -48.788869 16.605800 7.125000 0.000000 0.000000 62.357100 -79.034400 -52.077700 
8.136747 17.862651 34.602978 178.756747 -2.020507 -156.379165 9.109278 1.303826 -1.779528 -26.133661 -18.946781 -18.820527 -0.974121 6.276085 14.424759 0.658718 -3.034037 -18.491410 5.131100 -13.529900 -41.386000 -13.498720 -3.064671 -1.711521 32.104522 16.417032 -15.719840 1.242139 -4.349951 10.288970 -1.224463 -1.671412 -22.197709 -2.763500 10.302000 -29.960200 -3.712399 -0.204396 -25.018132 1.657792 -0.733104 -5.177786 0.000642 -1.370718 14.430726 -9.226504 -2.076575 -7.110378 9.447523 -3.756528 14.921488 1.018400 -1.165200 3.385100 15.270109 -0.653662 0.710275 -106.562009 -1.740217 3.637864 8.630816 -8.472996 -0.754289 -0.955863 1.591116 21.482570 15.944587 -10.144989 -3.500800 -7.125000 0.000000 0.000000 -6.812600 18.255700 4.366600 -10.629585 -0.411356 -0.138602 98.829851 -2.407977 1.708091 -11.750504 21.600610 -3.023849 1.490770 4.038587 5.189547 -19.807717 -48.911504 16.951500 7.125000 0.000000 0.000000 62.878400 -79.227800 -52.750400 
8.133789 17.863747 34.598595 178.738144 -2.119251 -156.462646 9.098844 1.322872 -1.761711 -26.187742 -18.931672 -18.740179 -0.969560 6.266919 14.417995 0.645424 -3.107616 -18.433390 5.240700 -13.649800 -41.852500 -13.480461 -3.091434 -1.744557 32.124096 16.032389 -15.730440 1.227040 -4.364340 10.374942 -1.231466 -1.494097 -22.179369 -2.810600 10.382000 -30.222800 -3.700822 -0.247392 -24.933864 1.658301 -0.778172 -5.170103 -0.032674 -1.393042 14.448998 -9.171364 -2.229856 -7.300259 9.321151 -3.892963 15.144652 0.961200 -1.223000 3.516400 15.268891 -0.619548 0.698859 -106.567035 -1.756057 3.883040 8.666439 -8.517058 -0.761748 -0.969633 1.570235 21.087386 15.939317 -10.075361 -3.473500 -7.125000 0.000000 0.000000 -6.817800 18.343200 4.356700 -10.631354 -0.378529 -0.135366 98.858425 -2.331428 1.552007 -11.674385 21.499924 -2.995343 1.514008 4.067277 5.256460 -20.184087 -49.329221 17.372600 7.125000 0.000000 0.000000 65.087600 -79.502300 -55.070800 
8.131817 17.859145 34.595528 178.745221 -2.120144 -156.398369 9.095296 1.325077 -1.757871 -26.169509 -18.887650 -18.850274 -0.966353 6.285942 14.448178 0.635101 -3.171336 -18.417083 5.198200 -13.603600 -41.672200 -13.477694 -3.091271 -1.750599 32.110611 15.904668 -15.864217 1.218195 -4.385296 10.413915 -1.233737 -1.297280 -22.155494 -2.764200 10.303100 -29.964000 -3.678785 -0.246571 -25.029150 1.655495 -0.782698 -5.177060 -0.071927 -1.412214 14.491304 -8.963604 -2.453712 -7.697380 8.967272 -4.032768 15.623506 0.789800 -1.270800 3.791300 15.269811 -0.544814 0.681541 -106.578968 -1.783269 4.010486 8.676585 -8.525148 -0.765528 -0.975240 1.594512 20.902917 16.026826 -10.279430 -3.564600 -7.125000 0.000000 0.000000 -6.749900 18.099400 4.349300 -10.631955 -0.311441 -0.136316 98.914614 -2.328513 1.500940 -11.662903 21.499059 -2.992956 1.525223 4.085219 5.224941 -20.488171 -49.569497 17.692200 7.125000 0.000000 0.000000 66.398100 -79.687900 -56.481800 
